#!OML:ASF F:\VICON\USERDATA\INSTALL\rory3\rory3.ASF
:FULLY-SPECIFIED
:DEGREES
227
root 1.07538 15.9249 -13.1743 21.2395 1.0139 0.282045
lowerback 24.0719 -0.0756226 0.121426
upperback 0.302299 0.263465 2.39131
thorax -13.2248 0.216206 2.55915
lowerneck -29.4975 -4.85204 -7.41216
upperneck 4.14722 -4.9181 9.24486
head 6.24209 -1.69002 3.5993
rclavicle -4.37326e-015 7.55382e-015
rhumerus -26.5805 -0.782828 -60.9251
rradius 115.616
rwrist -15.9475
rhand -1.54925 17.971
rfingers 7.12502
rthumb 24.1057 -10.5347
lclavicle -4.37326e-015 7.55382e-015
lhumerus -7.63055 1.32751 67.3685
lradius 115.556
lwrist 10.2604
lhand -18.9823 14.3142
lfingers 7.12502
lthumb 7.32224 44.1675
rfemur -41.4888 -0.463345 20.6584
rtibia 63.6944
rfoot -29.9252 -15.0343
rtoes -12.531
lfemur -42.949 0.397622 -18.9524
ltibia 63.8144
lfoot -31.287 2.02824
ltoes -18.0395
228
root 1.10545 16.111 -12.9202 19.2149 3.55262 1.1758
lowerback 24.6825 -1.24202 1.19244
upperback 0.361089 -0.953856 2.33793
thorax -13.4599 -0.404326 2.32158
lowerneck -28.6695 -4.79872 -7.5684
upperneck 4.23622 -4.88539 9.48417
head 6.16896 -1.67529 3.70971
rclavicle -3.57812e-015 -3.97569e-015
rhumerus -27.5073 0.499264 -58.3404
rradius 118.166
rwrist -16.922
rhand -1.19562 18.0419
rfingers 7.12502
rthumb 24.4447 -10.4184
lclavicle -3.57812e-015 -3.97569e-015
lhumerus -8.16433 1.05924 64.72
lradius 118.162
lwrist 11.4548
lhand -19.7858 14.512
lfingers 7.12502
lthumb 6.54661 44.3908
rfemur -36.4594 -3.65666 20.567
rtibia 60.8737
rfoot -29.0874 -15.2018
rtoes -16.0381
lfemur -38.4752 -2.2224 -19.0596
ltibia 60.8724
lfoot -30.0665 1.22757
ltoes -19.5791
229
root 1.11806 16.2902 -12.674 18.1537 4.24454 1.69332
lowerback 24.1978 -1.50051 1.11085
upperback 0.248125 -1.32723 2.33271
thorax -13.3083 -0.570257 2.48094
lowerneck -28.1732 -4.78448 -7.75029
upperneck 4.76528 -4.87251 9.48803
head 6.2767 -1.67928 3.74329
rclavicle 7.95139e-015 7.95139e-015
rhumerus -28.7934 2.08142 -55.7207
rradius 120.631
rwrist -17.2735
rhand -0.784542 18.2831
rfingers 7.12502
rthumb 24.8387 -10.1235
lclavicle 7.95139e-015 7.95139e-015
lhumerus -9.04431 0.477065 62.2101
lradius 120.662
lwrist 12.759
lhand -20.5433 15.0164
lfingers 7.12502
lthumb 5.81527 44.9166
rfemur -32.6402 -4.97544 20.0219
rtibia 57.8776
rfoot -28.3456 -13.1373
rtoes -15.4249
lfemur -34.9867 -3.09763 -19.4214
ltibia 57.9064
lfoot -28.6473 0.291187
ltoes -19.1741
230
root 1.08399 16.4529 -12.4518 18.9727 -0.50131 0.600671
lowerback 21.7722 0.639488 -1.2413
upperback -0.252305 0.84343 2.46287
thorax -12.6197 0.571055 3.21311
lowerneck -27.9196 -4.86456 -8.08111
upperneck 5.70418 -4.94588 9.50335
head 6.56429 -1.71814 3.79435
rclavicle 0 6.36111e-015
rhumerus -30.257 3.96721 -53.1715
rradius 122.809
rwrist -16.7791
rhand -0.261265 18.6824
rfingers 7.12502
rthumb 25.3401 -9.65409
lclavicle 0 6.36111e-015
lhumerus -10.3578 -0.505817 59.7798
lradius 122.816
lwrist 13.9711
lhand -21.4799 14.8659
lfingers 7.12502
lthumb 4.91102 44.789
rfemur -32.0859 -1.30503 19.6396
rtibia 54.8623
rfoot -26.2827 -10.7803
rtoes -17.3419
lfemur -33.2138 1.07818 -19.6872
ltibia 55.0693
lfoot -27.2757 0.0927474
ltoes -19.3153
231
root 1.08024 16.6579 -12.1603 18.0803 0.0255562 0.653961
lowerback 20.7988 0.47404 -1.06404
upperback -0.409739 0.684966 2.56331
thorax -12.2356 0.487668 3.26676
lowerneck -27.6701 -4.92118 -8.29753
upperneck 6.78163 -5.03835 9.51937
head 6.8991 -1.76336 3.82627
rclavicle 2.78299e-015 -1.19271e-014
rhumerus -31.8676 5.96302 -51.0261
rradius 124.72
rwrist -15.1971
rhand 0.618263 19.1301
rfingers 7.12502
rthumb 26.1824 -9.08424
lclavicle 2.78299e-015 -1.19271e-014
lhumerus -11.7101 -1.96023 57.2493
lradius 124.531
lwrist 14.689
lhand -22.0329 14.8829
lfingers 7.12502
lthumb 4.37697 44.8177
rfemur -28.2558 -2.19881 19.588
rtibia 51.4662
rfoot -24.8586 -9.35068
rtoes -18.1991
lfemur -29.5511 0.525966 -19.4657
ltibia 51.8365
lfoot -25.5597 -0.609215
ltoes -20.0827
232
root 1.08963 16.8709 -11.877 17.5761 -0.12191 0.460105
lowerback 19.4219 0.53595 -0.83968
upperback -0.672528 0.825571 2.60484
thorax -11.7559 0.537436 3.13225
lowerneck -27.008 -4.89037 -8.3786
upperneck 7.69099 -5.06808 9.43363
head 7.1054 -1.79749 3.81142
rclavicle 1.98785e-015 -2.62396e-014
rhumerus -33.2039 8.14067 -49.2849
rradius 126.121
rwrist -12.544
rhand 2.05304 19.3978
rfingers 7.12502
rthumb 27.5553 -8.60525
lclavicle 1.98785e-015 -2.62396e-014
lhumerus -12.835 -3.80403 54.8607
lradius 125.78
lwrist 15.049
lhand -22.5258 15.7361
lfingers 7.12502
lthumb 3.901 45.6801
rfemur -25.039 -2.52989 19.4595
rtibia 47.9978
rfoot -22.5659 -7.49311
rtoes -17.3945
lfemur -26.3256 0.470991 -19.2771
ltibia 48.5003
lfoot -23.3159 -1.25617
ltoes -20.1707
233
root 1.09709 17.1033 -11.5821 17.0699 -0.308265 0.339525
lowerback 17.8457 0.587814 -0.715268
upperback -0.908299 0.925663 2.67211
thorax -11.124 0.574922 3.09853
lowerneck -26.0286 -4.82551 -8.6047
upperneck 8.65228 -5.03945 9.39257
head 7.27924 -1.81344 3.84562
rclavicle -5.1684e-015 -2.38542e-014
rhumerus -34.3408 10.504 -47.8944
rradius 127.241
rwrist -9.4056
rhand 3.81865 19.0311
rfingers 7.12502
rthumb 29.2425 -8.69071
lclavicle -5.1684e-015 -2.38542e-014
lhumerus -14.1508 -5.81783 52.9115
lradius 126.516
lwrist 14.6402
lhand -23.871 16.0202
lfingers 7.12502
lthumb 2.60198 45.984
rfemur -21.756 -2.91502 19.2059
rtibia 44.3791
rfoot -19.7156 -5.51667
rtoes -17.7412
lfemur -22.9523 0.371275 -19.1803
ltibia 44.7838
lfoot -20.3983 -1.99118
ltoes -20.6209
234
root 1.10816 17.3437 -11.2849 16.5457 -0.518561 0.17495
lowerback 16.1932 0.680989 -0.450634
upperback -1.05262 1.10024 2.74038
thorax -10.3424 0.638831 2.9702
lowerneck -25.3256 -4.83845 -8.89124
upperneck 9.81844 -5.07375 9.26367
head 7.56504 -1.86408 3.85313
rclavicle -3.18055e-015 0
rhumerus -35.9309 12.7646 -46.9411
rradius 128.205
rwrist -5.56307
rhand 4.58133 18.8498
rfingers 7.12502
rthumb 29.9706 -8.74278
lclavicle -3.18055e-015 0
lhumerus -15.5293 -7.84581 51.3884
lradius 126.684
lwrist 13.4144
lhand -25.2517 15.7936
lfingers 7.12502
lthumb 1.26844 45.7696
rfemur -18.5842 -3.13415 18.9629
rtibia 40.8858
rfoot -16.31 -3.44137
rtoes -19.0337
lfemur -19.6034 0.237151 -19.0481
ltibia 40.994
lfoot -16.7546 -2.98639
ltoes -22.7726
235
root 1.12193 17.5972 -10.9883 16.0151 -0.822981 0.257005
lowerback 14.6239 0.829339 -0.428233
upperback -1.22659 1.29425 2.78411
thorax -9.6437 0.728065 2.95841
lowerneck -24.4956 -4.8582 -9.29863
upperneck 11.0699 -5.08077 9.05401
head 7.85618 -1.9213 3.85923
rclavicle 9.14409e-015 2.3059e-014
rhumerus -37.6717 15.1838 -46.2163
rradius 128.945
rwrist -1.82831
rhand 4.66096 18.2811
rfingers 7.12502
rthumb 30.0465 -9.29771
lclavicle 9.14409e-015 2.3059e-014
lhumerus -16.9025 -9.80855 50.3357
lradius 126.468
lwrist 12.0293
lhand -25.5479 15.7064
lfingers 7.12502
lthumb 0.982442 45.6839
rfemur -15.7059 -3.18144 18.3858
rtibia 37.5429
rfoot -11.8964 -1.24537
rtoes -19.8004
lfemur -16.3292 -0.0116456 -19.2061
ltibia 37.1286
lfoot -12.3161 -4.1455
ltoes -24.1398
236
root 1.1312 17.875 -10.6848 15.3816 -1.19153 0.330926
lowerback 13.084 0.974901 -0.471767
upperback -1.32446 1.47359 2.85468
thorax -8.87853 0.814451 3.02481
lowerneck -23.579 -4.81755 -9.69057
upperneck 12.4877 -5.03256 8.85266
head 8.18358 -1.9573 3.878
rclavicle -1.31198e-014 -3.4191e-014
rhumerus -39.2515 17.606 -45.8115
rradius 129.406
rwrist 0.866977
rhand 5.35097 17.9888
rfingers 7.12502
rthumb 30.7047 -9.4685
lclavicle -1.31198e-014 -3.4191e-014
lhumerus -18.4495 -11.6754 49.4741
lradius 125.919
lwrist 10.6637
lhand -25.3011 15.6014
lfingers 7.12502
lthumb 1.22078 45.5777
rfemur -12.9726 -2.80472 17.7801
rtibia 34.3652
rfoot -6.50586 0.433797
rtoes -19.3367
lfemur -13.1076 -0.420433 -19.3662
ltibia 33.3307
lfoot -7.12807 -4.74518
ltoes -24.6132
237
root 1.1352 18.1696 -10.3802 14.6724 -1.69279 0.303339
lowerback 11.6022 1.12797 -0.369647
upperback -1.30991 1.67635 2.85717
thorax -8.02056 0.902539 2.93897
lowerneck -22.8619 -4.72421 -9.85404
upperneck 14.0185 -4.95042 8.53618
head 8.56988 -1.97741 3.82756
rclavicle -1.47101e-014 -4.77083e-015
rhumerus -40.8219 19.9816 -45.9301
rradius 129.48
rwrist 2.52974
rhand 5.3314 18.0126
rfingers 7.12502
rthumb 30.686 -9.44829
lclavicle -1.47101e-014 -4.77083e-015
lhumerus -20.3034 -13.4219 48.4904
lradius 125.169
lwrist 9.34362
lhand -25.2757 15.0172
lfingers 7.12502
lthumb 1.24531 44.9933
rfemur -10.3966 -1.92117 17.2552
rtibia 31.4326
rfoot -0.217662 1.04972
rtoes -15.7551
lfemur -10.0274 -0.862022 -19.449
ltibia 29.6661
lfoot -0.698807 -5.27477
ltoes -23.6148
